inDegrees=no
num_controls=7
num_derivatives=13
num_iterations=234
num_multipliers=7
num_parameters=0
num_slacks=7
num_states=26
objective=0.435302
objective_accelerations=0.044463
objective_balance=0.006754
objective_effort=0.028591
objective_height=0.354065
objective_ligament=0.001429
solver_duration=3066.836512
status=Solve_Succeeded
success=true
DataType=double
version=3
OpenSimVersion=4.5
endheader
time	/jointset/ground_pelvis/pelvis_tilt/value	/jointset/ground_pelvis/pelvis_tx/value	/jointset/ground_pelvis/pelvis_ty/value	/jointset/hip_l/hip_flexion_l/value	/jointset/hip_l/hip_adduction_l/value	/jointset/hip_l/hip_rotation_l/value	/jointset/back/lumbar_extension/value	/jointset/patellofemoral_l/patellar_flexion_l/value	/jointset/knee_l/knee_flexion_l/value	/jointset/knee_l/knee_adduction_l/value	/jointset/knee_l/knee_rotation_l/value	/jointset/ankle_l/ankle_angle_l/value	/jointset/subtalar_l/subtalar_angle_l/value	/jointset/ground_pelvis/pelvis_tilt/speed	/jointset/ground_pelvis/pelvis_tx/speed	/jointset/ground_pelvis/pelvis_ty/speed	/jointset/hip_l/hip_flexion_l/speed	/jointset/hip_l/hip_adduction_l/speed	/jointset/hip_l/hip_rotation_l/speed	/jointset/back/lumbar_extension/speed	/jointset/patellofemoral_l/patellar_flexion_l/speed	/jointset/knee_l/knee_flexion_l/speed	/jointset/knee_l/knee_adduction_l/speed	/jointset/knee_l/knee_rotation_l/speed	/jointset/ankle_l/ankle_angle_l/speed	/jointset/subtalar_l/subtalar_angle_l/speed	/forceset/tau_hip_flexion_l	/forceset/tau_hip_adduction_l	/forceset/tau_hip_rotation_l	/forceset/tau_knee_flexion_l	/forceset/tau_ankle_angle_l	/forceset/tau_subtalar_angle_l	/forceset/tau_lumbar_extension	lambda_cid13_p0	lambda_cid13_p1	lambda_cid13_p2	lambda_cid13_p3	lambda_cid13_p4	lambda_cid13_p5	lambda_cid14_p0	/jointset/ground_pelvis/pelvis_tilt/accel	/jointset/ground_pelvis/pelvis_tx/accel	/jointset/ground_pelvis/pelvis_ty/accel	/jointset/hip_l/hip_flexion_l/accel	/jointset/hip_l/hip_adduction_l/accel	/jointset/hip_l/hip_rotation_l/accel	/jointset/back/lumbar_extension/accel	/jointset/patellofemoral_l/patellar_flexion_l/accel	/jointset/knee_l/knee_flexion_l/accel	/jointset/knee_l/knee_adduction_l/accel	/jointset/knee_l/knee_rotation_l/accel	/jointset/ankle_l/ankle_angle_l/accel	/jointset/subtalar_l/subtalar_angle_l/accel	gamma_cid13_p0	gamma_cid13_p1	gamma_cid13_p2	gamma_cid13_p3	gamma_cid13_p4	gamma_cid13_p5	gamma_cid14_p0
0.5	-0.3167925151196008	-0.02219105860738044	0.7858062651295173	1.081609044800034	-0.3064785065298743	-0.02098054828847398	-0.3135115723334063	0.7328275412589691	0.7328275412598687	-0.1739157405429061	0.1701570561600655	0.1438172972311363	-0.02428800047450497	-0.3974508684069977	-0.1593632014971357	-0.4301148741070482	1.905755821607102	-0.01283334119887236	0.6407654946120531	-0.6330764562185225	1.900921405164318	1.900921405164734	-0.00382345332233016	0.03094403356957595	0.5044853635056518	0.06767588245747204	-0.175746434572525	0.01898853338924684	-0.02600208487606601	-0.2458514833949701	0.09767893055712444	0.04126417886205031	0.1781081767078619	-6.987299274725951	-20.04818103455789	6.620970369754541	-0.7490678151358141	-607.4024941417962	-63.10088363627612	-25.63231460385103	0.3913345917088771	0.4690379125009577	-0.3642254802568653	-1.155773498044991	0.6190519581896261	-0.3598275460760894	1.487119809493633	-1.168051934776936	-1.168051934776972	0.07614397223446587	-0.07948398058343542	-0.3886855843431472	0.6173175444813044	-4.314027343888977e-07	-5.24428522179521e-07	2.369711897570897e-06	2.485470780513889e-07	-4.795384187389285e-07	-4.854850792498191e-07	-3.86421593034736e-07
0.51	-0.3207466438034552	-0.02376104232692312	0.7814878090550845	1.100605463331552	-0.3065774317301094	-0.01458958436907247	-0.3197676821759867	0.7517750021107745	0.7517750021110505	-0.1739539751725113	0.1704619339414777	0.1488413627331237	-0.02358219229870671	-0.3933304583428263	-0.1546192223190572	-0.4334865833525998	1.893274902189719	-0.006976153429978903	0.6373583345783466	-0.6180776800253295	1.888307915101961	1.888307915102186	-0.0038363075564063	0.03002135726830141	0.5002467773971468	0.07346086677890439	-0.1814023133163104	0.01945602505790824	-0.02617450661378006	-0.2484515325449293	0.09622778222558255	0.04165913088330423	0.1828787981277065	-7.635985812405471	-20.02742178109838	6.527758115145236	-0.5530439213921818	-611.0414450567683	-62.8960270255514	-24.51214162228019	0.4290168892450476	0.4792755635054529	-0.3102724401070923	-1.33224885272228	0.56508414794593	-0.3418380760602507	1.516431365058943	-1.347349840422285	-1.347349840450872	-0.04189005770821927	-0.1006381084655939	-0.4535829077670333	0.5551579980135563	-3.930991303672154e-07	-4.480510534814719e-07	2.20255028215714e-06	2.325119517940704e-07	-4.339746298282941e-07	-4.038852935730619e-07	-3.561521650635378e-07
0.52	-0.3246582438515727	-0.02528314672607619	0.7771383101295155	1.119469473131069	-0.3066185786603142	-0.008234827618816316	-0.3258717692884696	0.7705884576022652	0.770588457601915	-0.173992716331754	0.1707571892291627	0.1538206148172936	-0.02281932045528625	-0.3889451412597047	-0.149787337419212	-0.4363234443342649	1.879274075206841	-0.00127768719281698	0.6335240607829474	-0.6026719101990644	1.874120333101316	1.874120333101351	-0.003924759249664687	0.02901953482438196	0.4955226799421273	0.07908861598191112	-0.1870581920600952	0.01992351672657118	-0.02634692835150977	-0.2510515816948861	0.09477663389404135	0.04205408290456017	0.1876494195475514	-8.287951588319423	-20.00962927821357	6.439065005687135	-0.3826344354014631	-614.7598736862088	-62.77596718422612	-23.38939090899821	0.44431599549893	0.4866190568543012	-0.2572558274795506	-1.459755011144036	0.5873076518433173	-0.4452502984146202	1.568518536108076	-1.482870322434491	-1.482870322434505	0.06102448039801538	-0.09531320911241578	-0.4857878536460639	0.5858705207961857	-3.399472358600126e-07	-4.091657863296826e-07	1.946854072081621e-06	2.009249284076545e-07	-3.772767547517457e-07	-3.298688100706342e-07	-3.158921074731242e-07
0.53	-0.3285247790464196	-0.02675654710397318	0.7727631355403103	1.138186205288581	-0.3066032923321737	-0.001921050886528902	-0.3318197598379409	0.7892525274936539	0.7892525274930265	-0.1740318634186564	0.171042322319607	0.158750403944768	-0.02200066281924503	-0.3843209728823782	-0.1448828617159025	-0.4386185543402579	1.863829380473619	0.004307298008124873	0.6291547119354934	-0.5868663047604898	1.858443823599015	1.858443823598959	-0.00390729120236291	0.02800396133222942	0.4903612019652639	0.08461490123186879	-0.1926384491008947	0.02028943319245418	-0.02646626921016377	-0.2536889349621393	0.09333348509729503	0.04227509847860016	0.1923357157635261	-8.943838870123015	-19.90934377239268	6.330061795307075	-0.1622413826518193	-618.4883117912934	-62.53735299546882	-22.26511244586293	0.4775772204593777	0.4938801604695994	-0.2017702113874339	-1.623310454263528	0.5397132859174975	-0.4445255293213258	1.5955657879329	-1.647455551660231	-1.647455551673767	-0.02827264195586228	-0.105503783707088	-0.542412869261412	0.5316555508733056	-2.999309896227679e-07	-3.55910000121111e-07	1.763243714303141e-06	1.808240423155758e-07	-3.3342503727791e-07	-2.617057835773738e-07	-2.84841367693925e-07
0.54	-0.3323438505651709	-0.02818059905815701	0.7683677835261994	1.156741193748791	-0.306533032285684	0.004346682687001731	-0.3376078974849862	0.8077523494325132	0.8077523494316073	-0.1740709119468565	0.171317134802241	0.1636263612725627	-0.02112761272594867	-0.3794524060406581	-0.1399176526765792	-0.4403589293153833	1.846925335746306	0.009717056476981773	0.6243154290316181	-0.5707013297138858	1.841270742595421	1.841270742595276	-0.003905047509145826	0.02695541326246052	0.4847563200062034	0.08996710743293639	-0.1982187061416941	0.0206553496583372	-0.02658561006882591	-0.2563262882293914	0.09189033630054876	0.04249611405264025	0.1970220119795011	-9.604473623432039	-19.81042914479162	6.223793789941593	0.04321510206606876	-622.3132292057503	-62.36956548972836	-21.14076132051429	0.4931956883776401	0.4987657240570498	-0.146308821306035	-1.75162500996233	0.552262305426326	-0.5392371096988978	1.640392457713964	-1.782184622693082	-1.782184622692977	0.05797960958107544	-0.1019081246356866	-0.5744686500854785	0.5510547110181707	-2.744478010459025e-07	-2.867549162326951e-07	1.659387916512875e-06	1.734312230172322e-07	-3.037860899177138e-07	-2.000189222857453e-07	-2.639796603867078e-07
0.55	-0.3361130987687502	-0.02955474474561153	0.7639578199502799	1.175120071293716	-0.3064094428301968	0.01056361937158297	-0.3432326331131071	0.8260731707683551	0.8260731707683656	-0.1741096897363602	0.1715813122880439	0.1684441860780775	-0.0202017852874374	-0.3743596800345609	-0.1349059074810628	-0.4415381063214517	1.828615154981821	0.01496837286864461	0.6189939855540096	-0.5541956244355727	1.822653043775142	1.822653043775015	-0.003851628193497821	0.02588090530327756	0.4787401269505929	0.09516445853509639	-0.2036824835909134	0.02089323130885586	-0.02665610864868937	-0.2589911069481434	0.0904773168160781	0.04258957209764917	0.2015891493767072	-10.25762380697705	-19.6524835733216	6.102467065775447	0.2838297703195197	-626.1013266092702	-62.12836841094171	-20.01803699257733	0.5229208651211775	0.5032493970464962	-0.08942773207784573	-1.905998028484092	0.5064817738606425	-0.5405073547579017	1.663185284096778	-1.937584111252771	-1.937584111250133	-0.02112485273049869	-0.1104146289069606	-0.6254619097378422	0.4988387087325323	-2.496195214437348e-07	-2.212948993466889e-07	1.555188765918637e-06	1.659430943075208e-07	-2.757532447860507e-07	-1.428365399178796e-07	-2.433600642993212e-07
0.5600000000000001	-0.3398302977505892	-0.03087859888516137	0.7595389234859358	1.193308790347238	-0.306234357117228	0.01672495974379571	-0.3486908065442035	0.8442006107960822	0.8442006107970101	-0.1741479629217643	0.171834706194786	0.1731997954977485	-0.019225031658121	-0.3690425616926479	-0.1298593430956436	-0.4421455070003451	1.808893637465639	0.02001630797328176	0.613196166557758	-0.5373888903089877	1.802594480972564	1.802594480972454	-0.003804126689335878	0.02479869745020027	0.4723132428374222	0.1001523455939612	-0.2091462610401307	0.02113111295937775	-0.02672660722855877	-0.2616559256668938	0.08906429733160863	0.04268303014266215	0.2061562867739146	-10.91652641549011	-19.49516252278013	5.983104932653841	0.5153398123855936	-629.9969244242668	-61.95153508566554	-18.89896735942886	0.5380741555408114	0.5057295620376229	-0.03195355587104016	-2.033892360301473	0.5115860480211891	-0.6345122134275266	1.700598227368378	-2.070357419152943	-2.070357419152952	0.05679604728386215	-0.1034481034145513	-0.6566068615975451	0.5091619023591342	-2.255771326112042e-07	-1.602689628635741e-07	1.45057759195963e-06	1.583405943041682e-07	-2.496477223286272e-07	-9.105953225852914e-08	-2.230310016757311e-07
0.5700000000000001	-0.3434932909796445	-0.03215185871629328	0.7551168242924514	1.211293451736652	-0.3060096870956903	0.02282591915095741	-0.3539794573648514	0.8621204521561415	0.862120452157076	-0.1741854743657388	0.1720771924929572	0.1778892167519625	-0.01819930604294269	-0.3635221433942635	-0.1247908522011934	-0.4421767229549958	1.787811918020912	0.0248822046909574	0.6069220210121168	-0.5203010982388265	1.781142744444122	1.781142744444068	-0.003699129517756017	0.02369748783674654	0.465509248616802	0.1049548147217223	-0.2144550292085929	0.02123306389801839	-0.02674892423744143	-0.2643418201905209	0.08771328646805394	0.04267352760051171	0.2105726694947502	-11.55390189498135	-19.29285185284229	5.851950915720728	0.7636178444419136	-633.8080568560432	-61.72694072411331	-17.78575805236284	0.5640984867273593	0.5077053006205722	0.02588871977545599	-2.179344487728569	0.4685722929693137	-0.6351010135143709	1.718896034101451	-2.217196452631401	-2.217196452623083	-0.01276898394481468	-0.1138935542342389	-0.7015471058978824	0.4599516456178758	-2.03045113230687e-07	-9.945560060541962e-08	1.351612560439728e-06	1.522096105837489e-07	-2.25950767520495e-07	-4.212278078747168e-08	-2.033843926451877e-07
0.58	-0.3471000654617678	-0.03337437434898632	0.7506973318064281	1.229060489381385	-0.3057374619451101	0.02886189004498584	-0.3590960249973453	0.8798188532143286	0.8798188532152694	-0.1742219599452059	0.1723085794622078	0.1825087477832496	-0.01712672329096012	-0.3577988123062756	-0.1197105034078686	-0.4416241655081439	1.765368888529376	0.0295273337817758	0.6001984639311979	-0.5029722526782079	1.758306420598018	1.758306420598018	-0.003598953787770699	0.02257883166635496	0.4583351982520366	0.1095237729548145	-0.2197637973770557	0.02133501483665722	-0.02677124124633707	-0.2670277147141469	0.08636227560449869	0.04266402505835913	0.2149890522155857	-12.19759339618118	-19.09061254943178	5.722154062114816	1.006501769099496	-637.7314809143744	-61.55988603288508	-16.68097862092456	0.5786567134615102	0.508101141812535	0.08480112442949167	-2.306154369663219	0.4674325226497407	-0.7243945204830522	1.748808925459864	-2.347274882685399	-2.347274882685561	0.05583175896495316	-0.1069374148021201	-0.7306180904266115	0.4624597234253666	-1.824800866248851e-07	-3.891907919837698e-08	1.260000644654472e-06	1.479950201620332e-07	-2.05390551976556e-07	3.115032391854933e-09	-1.846265603869843e-07
